# xmcd CD database file generated by Grip 2.95
# 
# Track frame offsets:
#       150
#       14550
#       30095
#       50585
#       69110
#       87047
#       121005
#       153262
#       181562
#       210685
#       232122
#       253835
#       265287
#       293887
# 
# Disc length: 4130 seconds
# 
# Revision: 3
# Processed by: cddbd v1.4b41PL1 Copyright (c) Steve Scherf et al.
# Submitted via: Grip 2.95
# 
DISCID=b210200e
DTITLE=Otis Spann - The Complete Candid Otis Spann/Lightin' Hopkins Sessions Disc 3
DYEAR=1900
DGENRE=
TTITLE0=Rainy Highway
TTITLE1=When My First Wife Quit Me
TTITLE2=Walk On
TTITLE3=Lightin's Guitar Boogie
TTITLE4=I've Had My Fun If I Don't Get Well No More
TTITLE5=Mister Charlie
TTITLE6=Might Crazy
TTITLE7=Wonder Why
TTITLE8=Black Cat
TTITLE9=The Trouble Blues
TTITLE10=Your Own Fault, Baby, To Treat Me The Way You Do
TTITLE11=Lightin' Piano Boogie
TTITLE12=Take It Easy
TTITLE13=Come Go Home With Me
EXTD=
EXTT0=
EXTT1=
EXTT2=
EXTT3=
EXTT4=
EXTT5=
EXTT6=
EXTT7=
EXTT8=
EXTT9=
EXTT10=
EXTT11=
EXTT12=
EXTT13=
PLAYORDER=
